# xmcd
#
# Track frame offsets: 
#        150
#        19234
#        35582
#        56592
#        71786
#        86629
#        107517
#        125892
#        142633
#        158993
#
# Disc length: 2361 seconds
#
# Revision: 5
# Processed by: cddbd v1.5.2PL0 Copyright (c) Steve Scherf et al.
# Submitted via: ExactAudioCopy v1.1
#
DISCID=8809370a
DTITLE=張學友 - Wake Up Dreaming
DYEAR=2014
DGENRE=Pop
TTITLE0=用餘生去愛
TTITLE1=時間有淚
TTITLE2=你說的
TTITLE3=我愛上你
TTITLE4=我只想唱歌
TTITLE5=控訴
TTITLE6=我醒著做夢
TTITLE7=來得及
TTITLE8=白自在
TTITLE9=不錯
EXTD=
EXTT0=
EXTT1=
EXTT2=
EXTT3=
EXTT4=
EXTT5=
EXTT6=
EXTT7=
EXTT8=
EXTT9=
PLAYORDER=
